<?xml version="1.0" encoding="utf-8"?>
<svg width="82px" height="82px" viewbox="0 0 82 82" version="1.1" xmlns:xlink="http://www.w3.org/1999/xlink" xmlns="http://www.w3.org/2000/svg">
  <defs>
    <filter id="filter_1">
      <feColorMatrix in="SourceGraphic" type="matrix" values="0 0 0 0 1 0 0 0 0 1 0 0 0 0 1 0 0 0 1 0" />
    </filter>
    <path d="M0 0L82 0L82 82L0 82L0 0Z" id="path_1" />
    <clipPath id="mask_1">
      <use xlink:href="#path_1" />
    </clipPath>
  </defs>
  <g id="Remove-icon" filter="url(#filter_1)">
    <path d="M0 0L82 0L82 82L0 82L0 0Z" id="Background" fill="none" fill-rule="evenodd" stroke="none" />
    <g clip-path="url(#mask_1)">
      <path d="M23.0425 0C18.8384 0 15.375 3.46338 15.375 7.66748L15.375 10.25L0 10.25L0 15.375L5.125 15.375L5.125 58.9375C5.125 63.1816 8.56836 66.625 12.8125 66.625L43.5625 66.625C47.8066 66.625 51.25 63.1816 51.25 58.9375L51.25 15.375L56.375 15.375L56.375 10.25L41 10.25L41 7.66748C41 3.46338 37.5366 0 33.3325 0L23.0425 0ZM23.0425 5.125L33.3325 5.125C34.7739 5.125 35.875 6.22608 35.875 7.66748L35.875 10.25L20.5 10.25L20.5 7.66748C20.5 6.22608 21.6011 5.125 23.0425 5.125L23.0425 5.125ZM15.375 20.5L20.5 20.5L20.5 56.375L15.375 56.375L15.375 20.5ZM25.625 20.5L30.75 20.5L30.75 56.375L25.625 56.375L25.625 20.5ZM35.875 20.5L41 20.5L41 56.375L35.875 56.375L35.875 20.5Z" transform="translate(10.25 5.125)" id="Shape" fill="#FFFFFF" fill-rule="evenodd" stroke="none" />
    </g>
  </g>
</svg>